<mxfile host="65bd71144e">
    <diagram id="HIP3nbAZw_EuaXWnEj3U" name="Page-1">
        <mxGraphModel dx="835" dy="570" grid="1" gridSize="10" guides="1" tooltips="1" connect="1" arrows="1" fold="1" page="1" pageScale="1" pageWidth="850" pageHeight="1100" math="0" shadow="0">
            <root>
                <mxCell id="0"/>
                <mxCell id="1" parent="0"/>
                <mxCell id="7" value="http://ics2o.mths.ca" style="swimlane;whiteSpace=wrap;html=1;" vertex="1" parent="1">
                    <mxGeometry x="50" y="70" width="780" height="420" as="geometry"/>
                </mxCell>
                <mxCell id="8" value="&lt;span style=&quot;font-size: 16px;&quot;&gt;Current temperature checker&lt;/span&gt;" style="rounded=0;whiteSpace=wrap;html=1;" vertex="1" parent="7">
                    <mxGeometry x="10" y="20" width="770" height="40" as="geometry"/>
                </mxCell>
                <mxCell id="9" value="The temperature outside is 18.72&lt;span style=&quot;font-family: &amp;quot;Google Sans&amp;quot;, arial, sans-serif; text-align: left;&quot;&gt;&lt;font style=&quot;font-size: 12px;&quot;&gt;Â°C!&lt;/font&gt;&lt;/span&gt;" style="text;html=1;strokeColor=none;fillColor=none;align=center;verticalAlign=middle;whiteSpace=wrap;rounded=0;fontSize=16;" vertex="1" parent="7">
                    <mxGeometry x="33" y="220" width="137" height="30" as="geometry"/>
                </mxCell>
                <mxCell id="10" value="&lt;span style=&quot;font-size: 16px;&quot;&gt;Do you want to know the temperature outside&lt;/span&gt;" style="text;html=1;strokeColor=none;fillColor=none;align=center;verticalAlign=middle;whiteSpace=wrap;rounded=0;" vertex="1" parent="7">
                    <mxGeometry x="20" y="140" width="340" height="30" as="geometry"/>
                </mxCell>
                <mxCell id="12" value="" style="shape=image;verticalLabelPosition=bottom;labelBackgroundColor=default;verticalAlign=top;aspect=fixed;imageAspect=0;image=data:image/png,iVBORw0KGgoAAAANSUhEUgAAAEAAAABACAYAAACqaXHeAAAABHNCSVQICAgIfAhkiAAAAAlwSFlzAAALEgAACxIB0t1+/AAAAUhJREFUeNrt230NgzAQh2GkIAUJyJgMJCABCZNQKcxBHdyOpFkyEkYGV9oL75Lff2Rwz8pXe2tEpLlzGgAAAAAAAAAAYHsDg4+8Hp1m0ATNrJGNzGmbZdvOZN+lAFLRkyb+KHgvMX1H5wYgFR5OFL2VcATiMgA9uFbzzFD4Oss+2qoA9ID6k0P9yKnRVwGgBzJeWPg6Y1GAdIGSwpmKAFRS/C5CFoDCw/6v08EcIF3wpNL0WQHSrS5WDBDXt0hrgGfFxX+eE7IApCc8cZIuB0BwBBBMAZz9+l+jwApgcggwWQJEhwDRBMDp8P+cBhYAg2OAwQIgOAYIFgCzY4DZAkBcB4C7AywvcIwAAADgNsiDEI/CvAzxOsyECFNiTIoyLc7CCEtjLI6yPE6DBC0yNEnRJkejJK2yNEvTLs8fJgAAAAAAAADg1nkDlR7XfJiH1ggAAAAASUVORK5CYII=;" vertex="1" parent="7">
                    <mxGeometry x="540" y="133" width="204" height="204" as="geometry"/>
                </mxCell>
            </root>
        </mxGraphModel>
    </diagram>
</mxfile>